# xmcd
#
# Track frame offsets:
#	150
#	10689
#	33164
#	50210
#	71465
#	83423
#	96983
#	110599
#	128318
#	138588
#	154317
#	170869
#	186700
#	207123
#	219336
#
# Disc length: 3127
#
# Revision: 1
# Processed by: cddbd v1.5.1PL0 Copyright (c) Steve Scherf et al.
# Submitted via: dBpowerAMP V4.0
# Normalized: r0:TDELIM( - )
#
DISCID=d20c350f
DTITLE=Various Artist - All That Country - 1
DYEAR=1900
DGENRE=
TTITLE0=George Jones - Ain't Love A Lot Like That
TTITLE1=Iris DeMent - Our Town
TTITLE2=Southern Pacific - New Shade Of Blue
TTITLE3=Gary Morris - The Wind Beneath My Wings
TTITLE4=The McCarters - Timeless And True Love
TTITLE5=Jerry Lee Lewis - Honky Tonk Stuff
TTITLE6=Johnny Chester - Brand New
TTITLE7=Orleans - Still The One
TTITLE8=Pinkard and Bowden - Help Me Make It Through The Yard
TTITLE9=Holly Dunn - Daddy's Hands
TTITLE10=Keith Urban - It's A Love Thing
TTITLE11=Maria Muldaur - My Tennessee Mountain Home
TTITLE12=Kenny Rogers - Coward Of The Country
TTITLE13=Johnny Lee - Hey Bartender
TTITLE14=Michael Martin Murphey - Long Line Of Love
EXTD=
EXTT0=
EXTT1=
EXTT2=
EXTT3=
EXTT4=
EXTT5=
EXTT6=
EXTT7=
EXTT8=
EXTT9=
EXTT10=
EXTT11=
EXTT12=
EXTT13=
EXTT14=
PLAYORDER=
